<?xml version="1.0" encoding="UTF-8" standalone="no"?>
<!DOCTYPE svg PUBLIC "-//W3C//DTD SVG 1.1//EN" "http://www.w3.org/Graphics/SVG/1.1/DTD/svg11.dtd">
<svg width="100%" height="100%" viewBox="0 0 779 545" version="1.1" xmlns="http://www.w3.org/2000/svg" xmlns:xlink="http://www.w3.org/1999/xlink" xml:space="preserve" xmlns:serif="http://www.serif.com/" style="fill-rule:evenodd;clip-rule:evenodd;stroke-linecap:round;stroke-linejoin:round;stroke-miterlimit:1.5;">
    <g transform="matrix(1,0,0,1,-998.437,-236.456)">
        <g transform="matrix(1.04305,0,0,1.0615,429.231,-66.5984)">
            <path d="M547.872,288.109L548.424,796.536L1290,796.314L1290.4,287.615L547.872,288.109Z" style="stroke:black;stroke-width:4.28px;"/>
        </g>
        <path d="M1731.87,254.724C1733.63,261.307 1736.61,267.796 1743.02,273.457C1749.81,279.467 1754.22,281.982 1759.19,283.239L1758.84,735.329C1754.6,736.926 1750.04,739.456 1745.37,743.521C1738.28,749.701 1733.39,755.613 1730.95,763.413L1044.77,763.618C1043,758.082 1039.87,752.42 1034.3,746.798C1028.33,740.759 1023.12,737.658 1017.21,735.816L1016.72,282.686C1024.09,280.294 1030.09,276.328 1035.17,270.772C1040.16,265.312 1042.62,260.395 1044.09,255.182L1731.87,254.724Z" style="fill:white;stroke:black;stroke-width:4.5px;"/>
        <g transform="matrix(1.02092,0,0,1.03096,449.523,-49.8493)">
            <path d="M547.872,288.109L548.424,796.536L1290,796.314L1290.4,287.615L547.872,288.109Z" style="fill:none;stroke:white;stroke-width:1.95px;"/>
        </g>
    </g>
</svg>
