<?xml version="1.0" encoding="UTF-8" standalone="no"?>
<!DOCTYPE svg PUBLIC "-//W3C//DTD SVG 1.1//EN" "http://www.w3.org/Graphics/SVG/1.1/DTD/svg11.dtd">
<svg width="100%" height="100%" viewBox="0 0 649 886" version="1.1" xmlns="http://www.w3.org/2000/svg" xmlns:xlink="http://www.w3.org/1999/xlink" xml:space="preserve" xmlns:serif="http://www.serif.com/" style="fill-rule:evenodd;clip-rule:evenodd;stroke-linejoin:round;stroke-miterlimit:2;">
    <g transform="matrix(1,0,0,1,-974.316,-92.3204)">
        <g transform="matrix(1,0,0,1,748.417,11.45)">
            <path d="M260.487,411.689C254.771,378.33 254.239,338.207 257.718,290.551C263.166,215.926 301.036,103.609 301.036,103.609C310.538,103.786 351.517,98.563 374.346,114.395C395.214,128.868 406.135,144.791 412.186,185.05C414.099,181.592 416.053,178.16 418.054,174.749C441.024,135.584 471.942,108.92 513.466,91.721C553.018,75.338 621.466,79.684 654.551,90.432C687.566,101.156 711.578,114.858 729.661,127.977C791.163,125.281 838.348,133.179 838.348,133.179C838.348,133.179 855.022,146.602 867.693,179.872C882.377,218.429 869.695,245.137 869.695,245.137C833.022,246.804 756.356,261.213 721.92,279.717C721.92,279.717 777.837,318.214 803.367,362.299C830.327,408.853 843.2,470.518 847.7,518.471C858.986,638.742 793.717,762.512 775.804,789.484C741.094,841.747 638.051,1001.63 535.926,959.843C433.801,918.051 344.057,837.643 267.33,681.093C219.831,584.177 215.38,512.483 242.755,444.062C247.598,431.956 253.63,421.214 260.487,411.689Z" style="fill:rgb(225,0,52);"/>
        </g>
    </g>
</svg>
