<?xml version="1.0" encoding="UTF-8" standalone="no"?>
<!DOCTYPE svg PUBLIC "-//W3C//DTD SVG 1.1//EN" "http://www.w3.org/Graphics/SVG/1.1/DTD/svg11.dtd">
<svg width="100%" height="100%" viewBox="0 0 513 471" version="1.1" xmlns="http://www.w3.org/2000/svg" xmlns:xlink="http://www.w3.org/1999/xlink" xml:space="preserve" xmlns:serif="http://www.serif.com/" style="fill-rule:evenodd;clip-rule:evenodd;stroke-linejoin:round;stroke-miterlimit:2;">
    <g transform="matrix(1,0,0,1,-581.579,-255.264)">
        <g transform="matrix(1,0,0,1,-152.916,11.1656)">
            <path d="M920.639,497.772C939.897,485.183 951.48,476.527 971.753,460.809C992.249,444.917 1015.72,423.554 1029.54,411.891C1040.55,402.612 1066.45,379.818 1083.55,369.115C1095.51,361.626 1121.42,342.884 1124.38,332.487C1127.25,322.41 1121.65,309.674 1111.38,303.114C1103.32,297.973 1092.11,295.262 1084.44,293.496C1073.82,291.051 1055.07,288.05 1051.03,286.435C1046.98,284.821 1039.75,280.465 1049.23,273.291C1055.42,268.61 1069.91,263.275 1086.02,262.263C1099.07,261.442 1104.44,261.027 1110.03,260.772C1110.03,260.772 1131,247.394 1139.93,245.512C1155.48,242.236 1168.84,245.244 1181.38,248.554C1193.16,251.662 1203.2,259.563 1208.4,265.353C1216.62,274.516 1224.6,286.702 1230.88,300.531C1233.76,306.88 1242.12,328.689 1244.38,345.482C1245.58,354.372 1246.93,379.131 1247.09,388.365C1247.28,399.076 1245.8,425.081 1242.14,441.028C1237.19,462.609 1231.98,471.668 1226.89,483.995C1221.41,497.223 1214.61,507.566 1207.31,521.086C1200.01,534.605 1184.41,556.878 1168.87,571.683C1153.33,586.488 1119.49,605.175 1119.49,605.175C1119.49,605.175 1119.13,611.538 1119.37,622.819C1119.52,629.752 1119.42,636.433 1119.42,636.433C1123.43,643.658 1128.41,650.009 1135.51,657.825C1141.84,664.804 1148.58,669.626 1148.58,669.626C1152.58,670.515 1160.69,670.746 1160.69,670.746C1170.34,665.197 1175.03,662.246 1190.57,658.651C1199.12,656.674 1207.13,658.296 1211.4,659.483C1218.13,661.356 1220.21,669.282 1219.52,674.968C1219.52,674.968 1212.32,666.836 1205.15,666.314C1195.72,665.627 1185.99,673.21 1188.09,676.009C1191.1,680.005 1199.46,678.51 1206.15,681.869C1212.75,685.177 1224.97,694.253 1226.87,699.515C1226.87,699.515 1222.27,700.265 1215.13,695.272C1209.65,691.438 1205.08,690.361 1201.04,689.882C1193.35,688.971 1191.25,688.821 1182.85,689.248C1176.32,689.581 1169.9,690.631 1161.79,694.451C1161.79,694.451 1178.45,709.496 1177.32,711.309C1175.95,713.511 1162.45,703.889 1152.64,701.807C1145.32,700.251 1135.32,699.764 1126.4,702.735C1119.51,705.03 1115.68,705.909 1108.72,707.031C1101.76,708.154 1090.33,706.059 1082.67,704.387C1075.02,702.715 1072.76,699.772 1059.09,701.251C1053.93,701.809 1047.24,704.125 1041.01,707.477C1037.55,709.338 1029.43,715.09 1029.43,715.09C1029.43,715.09 1029.78,705.996 1037.42,699.907C1045.2,693.712 1054.94,690.77 1061.24,689.862C1068.16,688.862 1076.29,688.899 1076.29,688.899C1076.29,688.899 1047.95,657.614 1045.79,654.193C1043.29,650.227 1041.58,642.292 1041.86,631.84C1041.99,627.069 1042.01,610.798 1042.01,610.798C1042.01,610.798 1037.96,606.571 1018.52,603.338C999.088,600.105 996.95,600.442 992.075,601.177C983.371,602.488 976.457,605.363 955.402,608.556C946.15,609.959 926.302,612.596 921.622,612.571C909.364,612.505 909.122,614.073 894.021,621.188C875.626,629.855 844.003,647.76 822.083,658.337C809.145,664.581 768.389,678.988 760.559,679.901C752.728,680.813 754.985,674.653 758.116,671.046C760.767,667.993 761.323,664.983 761.323,664.983C761.323,664.983 756.214,664.938 750.001,666.484C743.787,668.03 733.742,666.304 734.539,661.892C735.336,657.481 735.417,655.791 749.739,646.291C764.061,636.791 774.477,629.297 777.815,627.24C781.154,625.183 799.109,612.847 799.109,612.847C799.109,612.847 792.51,614.596 785.04,616.159C780.132,617.186 773.119,618.651 771.158,617.429C766.812,614.723 763.247,618.135 760.027,616.632C758.412,615.878 758.648,613.13 759.559,610.151C763.863,596.066 790.928,578.372 796.976,574.183C817.606,559.892 820.156,560.715 845.385,545.655C868.726,531.722 898.585,512.19 920.639,497.772ZM1071.43,626.881L1090.25,619.197C1090.25,619.197 1089.31,634.372 1090.28,639.349C1090.77,641.89 1090.98,643.525 1096.26,649.009C1101.96,654.944 1124.46,675.843 1124.46,675.843C1124.46,675.843 1124.26,676.67 1120.03,677.143C1115.43,677.658 1108.71,678.127 1106.43,678.488C1102.42,679.123 1098.22,679.994 1098.22,679.994C1099.07,680.992 1090.6,673.079 1084.24,665.886C1076.25,656.833 1071.66,648.366 1071.66,648.366C1070.01,641.735 1071.43,626.881 1071.43,626.881Z"/>
        </g>
    </g>
</svg>
